<mxfile host="app.diagrams.net" agent="Mozilla/5.0 (Windows NT 10.0; Win64; x64) AppleWebKit/537.36 (KHTML, like Gecko) Chrome/134.0.0.0 Safari/537.36" version="26.1.1">
  <diagram name="Page-1" id="e56a1550-8fbb-45ad-956c-1786394a9013">
    <mxGraphModel dx="1434" dy="-420" grid="0" gridSize="10" guides="1" tooltips="1" connect="1" arrows="1" fold="1" page="0" pageScale="1" pageWidth="1100" pageHeight="850" background="none" math="0" shadow="0">
      <root>
        <mxCell id="0" />
        <mxCell id="1" parent="0" />
        <mxCell id="0LdscE0Iv_Stk3wDji6h-158" value="&lt;font style=&quot;font-size: 16px;&quot;&gt;&lt;font style=&quot;&quot; face=&quot;Verdana&quot;&gt;&lt;span style=&quot;text-wrap-mode: nowrap;&quot;&gt;IncidentItem&lt;/span&gt;&lt;/font&gt;&lt;br&gt;&lt;font style=&quot;&quot; face=&quot;Verdana&quot;&gt;&lt;span style=&quot;text-wrap-mode: nowrap;&quot;&gt;Справочник инцидентов&lt;/span&gt;&lt;/font&gt;&lt;/font&gt;" style="swimlane;childLayout=stackLayout;horizontal=1;startSize=50;horizontalStack=0;rounded=1;fontSize=14;fontStyle=0;strokeWidth=2;resizeParent=0;resizeLast=1;shadow=0;dashed=0;align=center;arcSize=4;whiteSpace=wrap;html=1;" parent="1" vertex="1">
          <mxGeometry x="35" y="1800" width="255" height="220" as="geometry" />
        </mxCell>
        <mxCell id="0LdscE0Iv_Stk3wDji6h-159" value="&lt;font style=&quot;font-size: 16px;&quot;&gt;Id&lt;br&gt;DateTime&lt;br&gt;Description&lt;/font&gt;&lt;div&gt;&lt;span style=&quot;font-size: 16px; background-color: transparent; color: light-dark(rgb(0, 0, 0), rgb(255, 255, 255));&quot;&gt;ClientId&lt;/span&gt;&lt;/div&gt;&lt;div&gt;&lt;font style=&quot;font-size: 16px;&quot;&gt;IsComplete&lt;/font&gt;&lt;/div&gt;&lt;div&gt;&lt;font style=&quot;font-size: 16px;&quot;&gt;IncidentClassificationId&lt;/font&gt;&lt;/div&gt;&lt;div&gt;&lt;font style=&quot;font-size: 16px;&quot;&gt;ClosedIncidentsItemId&lt;/font&gt;&lt;/div&gt;" style="align=left;strokeColor=none;fillColor=none;spacingLeft=4;spacingRight=4;fontSize=12;verticalAlign=top;resizable=0;rotatable=0;part=1;html=1;whiteSpace=wrap;" parent="0LdscE0Iv_Stk3wDji6h-158" vertex="1">
          <mxGeometry y="50" width="255" height="170" as="geometry" />
        </mxCell>
        <mxCell id="0LdscE0Iv_Stk3wDji6h-185" value="&lt;font style=&quot;&quot;&gt;&lt;font face=&quot;Verdana&quot;&gt;&lt;span style=&quot;font-size: 16px; text-wrap-mode: nowrap;&quot;&gt;ClientItem&lt;/span&gt;&lt;/font&gt;&lt;br&gt;&lt;font face=&quot;Verdana&quot;&gt;&lt;span style=&quot;font-size: 16px; text-wrap-mode: nowrap;&quot;&gt;Справочник клиентов&lt;/span&gt;&lt;/font&gt;&lt;/font&gt;" style="swimlane;childLayout=stackLayout;horizontal=1;startSize=50;horizontalStack=0;rounded=1;fontSize=14;fontStyle=0;strokeWidth=2;resizeParent=0;resizeLast=1;shadow=0;dashed=0;align=center;arcSize=4;whiteSpace=wrap;html=1;" parent="1" vertex="1">
          <mxGeometry x="415" y="1550" width="255" height="220" as="geometry" />
        </mxCell>
        <mxCell id="0LdscE0Iv_Stk3wDji6h-186" value="&lt;font style=&quot;&quot;&gt;&lt;span style=&quot;font-size: 16px;&quot;&gt;Id&lt;/span&gt;&lt;br&gt;&lt;span style=&quot;font-size: 16px;&quot;&gt;Name&lt;/span&gt;&lt;/font&gt;" style="align=left;strokeColor=none;fillColor=none;spacingLeft=4;spacingRight=4;fontSize=12;verticalAlign=top;resizable=0;rotatable=0;part=1;html=1;whiteSpace=wrap;" parent="0LdscE0Iv_Stk3wDji6h-185" vertex="1">
          <mxGeometry y="50" width="255" height="170" as="geometry" />
        </mxCell>
        <mxCell id="0LdscE0Iv_Stk3wDji6h-187" value="&lt;font style=&quot;&quot;&gt;&lt;font face=&quot;Verdana&quot;&gt;&lt;span style=&quot;font-size: 16px; text-wrap-mode: nowrap;&quot;&gt;IncidentClassification&lt;/span&gt;&lt;/font&gt;&lt;br&gt;&lt;font face=&quot;Verdana&quot;&gt;&lt;span style=&quot;font-size: 16px; text-wrap-mode: nowrap;&quot;&gt;Справочник классификаций&lt;/span&gt;&lt;/font&gt;&lt;/font&gt;" style="swimlane;childLayout=stackLayout;horizontal=1;startSize=50;horizontalStack=0;rounded=1;fontSize=14;fontStyle=0;strokeWidth=2;resizeParent=0;resizeLast=1;shadow=0;dashed=0;align=center;arcSize=4;whiteSpace=wrap;html=1;" parent="1" vertex="1">
          <mxGeometry x="415" y="1800" width="255" height="220" as="geometry" />
        </mxCell>
        <mxCell id="0LdscE0Iv_Stk3wDji6h-188" value="&lt;font style=&quot;&quot;&gt;&lt;span style=&quot;font-size: 16px;&quot;&gt;Id&lt;/span&gt;&lt;br&gt;&lt;span style=&quot;font-size: 16px;&quot;&gt;ClassificationName&lt;/span&gt;&lt;/font&gt;" style="align=left;strokeColor=none;fillColor=none;spacingLeft=4;spacingRight=4;fontSize=12;verticalAlign=top;resizable=0;rotatable=0;part=1;html=1;whiteSpace=wrap;" parent="0LdscE0Iv_Stk3wDji6h-187" vertex="1">
          <mxGeometry y="50" width="255" height="170" as="geometry" />
        </mxCell>
        <mxCell id="0LdscE0Iv_Stk3wDji6h-189" value="&lt;font style=&quot;&quot;&gt;&lt;font face=&quot;Verdana&quot;&gt;&lt;span style=&quot;font-size: 16px; text-wrap-mode: nowrap;&quot;&gt;ClosedIncidentsItem&lt;/span&gt;&lt;/font&gt;&lt;br&gt;&lt;span style=&quot;font-family: Verdana; font-size: 16px; text-wrap-mode: nowrap;&quot;&gt;Справочник резолюций&lt;/span&gt;&lt;/font&gt;" style="swimlane;childLayout=stackLayout;horizontal=1;startSize=50;horizontalStack=0;rounded=1;fontSize=14;fontStyle=0;strokeWidth=2;resizeParent=0;resizeLast=1;shadow=0;dashed=0;align=center;arcSize=4;whiteSpace=wrap;html=1;" parent="1" vertex="1">
          <mxGeometry x="415" y="2050" width="255" height="220" as="geometry">
            <mxRectangle x="415" y="2050" width="240" height="50" as="alternateBounds" />
          </mxGeometry>
        </mxCell>
        <mxCell id="0LdscE0Iv_Stk3wDji6h-190" value="&lt;font style=&quot;&quot;&gt;&lt;span style=&quot;font-size: 16px;&quot;&gt;Id&lt;/span&gt;&lt;br&gt;&lt;span style=&quot;font-size: 16px;&quot;&gt;Resolution&lt;/span&gt;&lt;/font&gt;" style="align=left;strokeColor=none;fillColor=none;spacingLeft=4;spacingRight=4;fontSize=12;verticalAlign=top;resizable=0;rotatable=0;part=1;html=1;whiteSpace=wrap;" parent="0LdscE0Iv_Stk3wDji6h-189" vertex="1">
          <mxGeometry y="50" width="255" height="170" as="geometry" />
        </mxCell>
        <mxCell id="0LdscE0Iv_Stk3wDji6h-192" value="" style="edgeStyle=entityRelationEdgeStyle;fontSize=12;html=1;endArrow=none;startArrow=ERmany;rounded=0;entryX=-0.003;entryY=0.097;entryDx=0;entryDy=0;entryPerimeter=0;strokeWidth=1;endSize=15;targetPerimeterSpacing=0;startSize=15;startFill=0;endFill=0;" parent="1" target="0LdscE0Iv_Stk3wDji6h-186" edge="1">
          <mxGeometry width="100" height="100" relative="1" as="geometry">
            <mxPoint x="290" y="1925" as="sourcePoint" />
            <mxPoint x="310" y="1800" as="targetPoint" />
          </mxGeometry>
        </mxCell>
        <mxCell id="0LdscE0Iv_Stk3wDji6h-193" value="" style="edgeStyle=entityRelationEdgeStyle;fontSize=12;html=1;endArrow=none;startArrow=ERmany;rounded=0;exitX=1.003;exitY=0.657;exitDx=0;exitDy=0;exitPerimeter=0;strokeWidth=1;endSize=15;targetPerimeterSpacing=0;startSize=15;startFill=0;endFill=0;entryX=0.005;entryY=0.099;entryDx=0;entryDy=0;entryPerimeter=0;" parent="1" source="0LdscE0Iv_Stk3wDji6h-159" target="0LdscE0Iv_Stk3wDji6h-188" edge="1">
          <mxGeometry width="100" height="100" relative="1" as="geometry">
            <mxPoint x="301" y="1952" as="sourcePoint" />
            <mxPoint x="410" y="1870" as="targetPoint" />
          </mxGeometry>
        </mxCell>
        <mxCell id="0LdscE0Iv_Stk3wDji6h-194" value="" style="edgeStyle=entityRelationEdgeStyle;fontSize=12;html=1;endArrow=none;startArrow=ERmany;rounded=0;exitX=0.999;exitY=0.776;exitDx=0;exitDy=0;strokeWidth=1;endSize=15;targetPerimeterSpacing=0;startSize=15;startFill=0;endFill=0;entryX=0;entryY=0.098;entryDx=0;entryDy=0;entryPerimeter=0;exitPerimeter=0;" parent="1" source="0LdscE0Iv_Stk3wDji6h-159" target="0LdscE0Iv_Stk3wDji6h-190" edge="1">
          <mxGeometry width="100" height="100" relative="1" as="geometry">
            <mxPoint x="305" y="1971" as="sourcePoint" />
            <mxPoint x="420" y="1880" as="targetPoint" />
          </mxGeometry>
        </mxCell>
      </root>
    </mxGraphModel>
  </diagram>
</mxfile>
